# xmcd
#
# Track frame offsets: 
#        150
#        17935
#        33995
#        48630
#        69040
#        85925
#        97035
#        114145
#        132005
#        146490
#        159475
#
# Disc length: 2378 seconds
#
# Revision: 0
# Processed by: cddbd v1.5.2PL0 Copyright (c) Steve Scherf et al.
# Submitted via: ExactAudioCopyFreeDBPlugin 1.0
#
DISCID=8709480b
DTITLE=White Boy White - Till I Find My Dyin' Bed
DYEAR=2016
DGENRE=Blues
TTITLE0=Smart Phone Song
TTITLE1=Hellhounds On My Trail
TTITLE2=Shoe My Woman
TTITLE3=Till I Find My Dyin' Bed
TTITLE4=Catfish Blues
TTITLE5=You Can Be My Sidecar
TTITLE6=A Prayer For The Greedy
TTITLE7=At Least You Got A Job
TTITLE8=Me And My Rider Blues (Homage To Memphis Minnie)
TTITLE9=Statesboro Blues
TTITLE10=Are You Really Worth It?
EXTD=
EXTT0=
EXTT1=
EXTT2=
EXTT3=
EXTT4=
EXTT5=
EXTT6=
EXTT7=
EXTT8=
EXTT9=
EXTT10=
PLAYORDER=
